<?xml version="1.0" encoding="UTF-8"?>
<svg version="1.1" viewBox="0 0 294.05 264.02" xmlns="http://www.w3.org/2000/svg">
 <defs>
  <filter id="b" color-interpolation-filters="sRGB">
   <feGaussianBlur stdDeviation="9.7619818"/>
  </filter>
  <filter id="a" color-interpolation-filters="sRGB">
   <feGaussianBlur stdDeviation="1.9273269"/>
  </filter>
 </defs>
 <g transform="translate(-2.1758 -25.115)">
  <g transform="translate(-151.38 -324.38)" fill-rule="evenodd">
   <g transform="matrix(.43439 0 0 .43439 233.04 207.08)" filter="url(#a)" stroke="#000">
    <path transform="translate(-192.41 49.696)" d="m254.85 345.14c0 12.668-10.269 22.937-22.937 22.937-12.668 0-22.937-10.269-22.937-22.937 0-12.668 10.269-22.937 22.937-22.937 12.668 0 22.937 10.269 22.937 22.937z" stroke-width="5"/>
    <path transform="matrix(.55556 0 0 .55556 -125.02 155.95)" d="m254.85 345.14c0 12.668-10.269 22.937-22.937 22.937-12.668 0-22.937-10.269-22.937-22.937 0-12.668 10.269-22.937 22.937-22.937 12.668 0 22.937 10.269 22.937 22.937z" stroke-width="9"/>
   </g>
   <path transform="matrix(.43439 0 0 .43439 148.9 228.12)" d="m254.85 345.14c0 12.668-10.269 22.937-22.937 22.937-12.668 0-22.937-10.269-22.937-22.937 0-12.668 10.269-22.937 22.937-22.937 12.668 0 22.937 10.269 22.937 22.937z" fill="#00112b" stroke="#fff" stroke-width="3"/>
   <path transform="matrix(.24133 0 0 .24133 178.17 274.27)" d="m254.85 345.14c0 12.668-10.269 22.937-22.937 22.937-12.668 0-22.937-10.269-22.937-22.937 0-12.668 10.269-22.937 22.937-22.937 12.668 0 22.937 10.269 22.937 22.937z" fill="#00112b" stroke="#fff" stroke-width="5.4"/>
   <path transform="matrix(.69101 0 0 .53826 87.122 183.44)" d="m317.3 368.82c-23.564 0-44.683 12.511-58.938 32.25-5.3097-0.75331-10.732-1.125-16.25-1.125-63.338 0-114.69 51.349-114.69 114.69 0 16.428 3.4658 32.028 9.6875 46.156-10.077 13.644-16.062 30.517-16.062 48.781 0 45.392 36.795 82.188 82.188 82.188 16.185 0 31.279-4.7036 44-12.781 6.9073 38.405 40.481 67.562 80.875 67.562 39.948 0 73.245-28.505 80.656-66.281 5.07-0.10108 10.035-0.63329 14.844-1.5625 67.723 38.997 57.087 106.36 61.562 93.875 3.711-10.355 16.78-72.688-16.656-118.19 13.562-14.165 21.844-33.038 21.844-53.75 0-19.031-7.0016-36.488-18.656-50.188 15.424-14.454 25.031-34.57 25.031-56.844 0-43.985-37.344-79.656-83.375-79.656-9.5594 0-18.73 1.5753-27.281 4.4062-13.016-29.454-38.913-49.531-68.781-49.531z" filter="url(#b)" stroke="#fff" stroke-width="3"/>
   <path d="m306.38 381.96c-16.283 0-30.876 6.7341-40.726 17.359-3.669-0.40548-7.4161-0.60555-11.229-0.60555-43.767 0-79.25 27.639-79.25 61.732 0 8.8426 2.3949 17.24 6.6941 24.844-6.9635 7.3441-11.099 16.426-11.099 26.257 0 24.433 25.426 44.239 56.792 44.239 11.184 0 21.614-2.5318 30.404-6.8797 4.773 20.672 27.973 36.366 55.885 36.366 27.604 0 50.613-15.343 55.734-35.677 3.5034-0.0544 6.9344-0.34088 10.257-0.84104 46.797 20.991 39.448 57.251 42.54 50.529 2.5643-5.5736 11.595-39.125-11.51-63.616 9.3712-7.6246 15.094-17.783 15.094-28.932 0-10.244-4.8382-19.64-12.892-27.014 10.658-7.7798 17.297-18.608 17.297-30.597 0-23.675-25.805-42.876-57.613-42.876-6.6056 0-12.942 0.84795-18.852 2.3717-8.994-15.854-26.889-26.661-47.528-26.661z" fill="#00112b" stroke="#fff" stroke-width="1.8296"/>
   <path d="m306.38 381.96c-16.283 0-30.876 6.7341-40.726 17.359-3.669-0.40548-7.4161-0.60555-11.229-0.60555-43.767 0-79.25 27.639-79.25 61.732 0 8.8426 2.3949 17.24 6.6941 24.844-6.9635 7.3441-11.099 16.426-11.099 26.257 129.97 33.736 225.08-3.818 259.6-62.422 0-23.675-25.805-42.876-57.613-42.876-6.6056 0-12.942 0.84795-18.852 2.3717-8.994-15.854-26.889-26.661-47.528-26.661z" fill="#fff" opacity=".1"/>
  </g>
 </g>
</svg>
