<?xml version="1.0" encoding="UTF-8" standalone="no"?>
<svg
   xmlns:dc="http://purl.org/dc/elements/1.1/"
   xmlns:cc="http://creativecommons.org/ns#"
   xmlns:rdf="http://www.w3.org/1999/02/22-rdf-syntax-ns#"
   xmlns:svg="http://www.w3.org/2000/svg"
   xmlns="http://www.w3.org/2000/svg"
   xmlns:sodipodi="http://sodipodi.sourceforge.net/DTD/sodipodi-0.dtd"
   xmlns:inkscape="http://www.inkscape.org/namespaces/inkscape"
   id="flag-icon-css-jp"
   width="512"
   height="512"
   version="1.1"
   sodipodi:docname="kl.svg"
   inkscape:version="0.92.2 (5c3e80d, 2017-08-06)">
  <metadata
     id="metadata16">
    <rdf:RDF>
      <cc:Work
         rdf:about="">
        <dc:format>image/svg+xml</dc:format>
        <dc:type
           rdf:resource="http://purl.org/dc/dcmitype/StillImage" />
        <dc:title />
      </cc:Work>
    </rdf:RDF>
  </metadata>
  <sodipodi:namedview
     pagecolor="#ffffff"
     bordercolor="#666666"
     borderopacity="1"
     objecttolerance="10"
     gridtolerance="10"
     guidetolerance="10"
     inkscape:pageopacity="0"
     inkscape:pageshadow="2"
     inkscape:window-width="2000"
     inkscape:window-height="1046"
     id="namedview14"
     showgrid="false"
     inkscape:pagecheckerboard="true"
     inkscape:zoom="0.4609375"
     inkscape:cx="-32.54237"
     inkscape:cy="256"
     inkscape:window-x="2391"
     inkscape:window-y="-9"
     inkscape:window-maximized="1"
     inkscape:current-layer="flag-icon-css-jp" />
  <defs
     id="defs5">
    <clipPath
       id="a">
      <path
         fill-opacity=".7"
         d="M177.2 0h708.6v708.7H177.2z"
         id="path2" />
    </clipPath>
  </defs>
  <path
     style="fill:#ffffff;fill-rule:evenodd;stroke-width:0.72249001pt"
     inkscape:connector-curvature="0"
     id="path7"
     d="M -128,0 H 640.00687 V 512.02866 H -128 Z" />
  <path
     style="clip-rule:evenodd;fill:#1a1a1a;fill-rule:evenodd;stroke-width:1.00000024;image-rendering:optimizeQuality;shape-rendering:geometricPrecision;text-rendering:geometricPrecision"
     inkscape:connector-curvature="0"
     id="path14"
     d="m 82.872253,462.88557 -1.654983,-5.72836 c -3.677744,-12.9642 -4.873013,-25.52642 -3.953585,-40.60107 1.746927,-27.23487 12.688246,-46.12845 26.387855,-61.90659 -3.769688,-12.96419 -5.884393,-26.63187 -5.884393,-40.90254 0,-38.18913 14.802933,-72.86084 38.800243,-97.98527 17.74513,-18.59206 40.45524,-31.85776 65.83172,-37.48563 13.23989,-52.35929 21.97453,-106.025059 25.4684,-156.675897 v 0 c 5.24079,44.319478 13.51573,102.005147 26.66369,156.173407 26.29591,5.32639 49.74154,18.89358 68.03836,37.98812 23.90536,25.12443 38.80025,59.69565 38.80025,97.98527 0,13.36619 -1.83887,26.22988 -5.14886,38.49061 17.74516,9.54729 37.60499,15.17515 60.40704,17.3861 l 3.21802,0.30149 -1.01137,3.31643 c -2.2986,7.43682 -9.10243,12.46171 -14.61905,16.38111 l -0.36778,0.30151 c -11.40102,8.2408 -30.52533,18.19008 -57.46483,18.19008 v 0 c -2.9422,0 -5.8844,-0.10051 -8.91855,-0.40198 -3.49385,-0.30151 -6.89577,-0.7035 -10.20575,-1.20599 -1.47109,1.70846 -3.03414,3.41693 -4.68912,5.12538 -23.90537,25.02393 -56.72928,40.50057 -92.95511,40.50057 -36.22584,0 -69.14167,-15.47664 -92.9551,-40.50057 -0.82751,-0.80398 -1.56306,-1.70845 -2.39055,-2.51244 -20.13568,11.55724 -36.409716,27.93835 -48.3624,48.64089 l -2.942195,5.02487 v 0 z M 117.4431,340.2784 c 2.85026,-2.71344 5.7005,-5.42689 8.55077,-8.14032 13.2399,-12.46172 25.74424,-24.21994 34.29499,-39.5961 l 2.11472,-3.71841 2.20664,3.61792 c 16.27405,26.63188 31.35283,55.27374 45.97188,83.0111 l 4.22941,8.03981 2.02276,3.9194 -4.13747,0.3015 c -23.16983,1.50746 -43.9491,6.02986 -61.97008,13.46669 20.5954,20.30053 48.36241,32.76225 78.88773,32.76225 29.78977,0 56.91316,-11.85872 77.32467,-31.25479 -5.14884,-1.20596 -10.1138,-2.61294 -15.07876,-3.9194 -15.44655,-4.1204 -30.15756,-8.14032 -47.07521,-8.94429 l -3.86162,-0.20101 1.65498,-3.8189 c 7.99911,-17.8886 18.11293,-35.97818 27.85895,-53.46478 7.17161,-12.7632 14.52711,-25.9284 21.05512,-38.9931 l 2.02277,-4.01991 2.29858,3.81892 c 13.14795,21.205 27.95089,37.58613 45.23631,49.84686 2.20665,-9.3463 3.40193,-19.09458 3.40193,-29.14434 0,-33.06373 -12.87213,-63.01206 -33.55947,-84.82006 -13.97544,-14.67265 -31.53669,-25.5264 -51.3046,-31.15428 6.06829,22.51148 13.14795,43.91749 21.14706,63.11255 l 0.55166,1.20598 -0.55166,1.20596 c -7.99911,16.88363 -16.91765,32.96325 -25.56036,48.54039 -7.81522,14.17018 -15.99821,28.74235 -23.26176,43.81701 l -1.93083,4.0199 v 0 l -2.39053,-3.81892 C 216.09872,337.66545 205.52519,318.0684 195.13555,299.07434 189.15921,288.0196 182.99897,276.66336 176.7468,265.70911 l -0.64362,-1.20597 0.45973,-1.30647 c 7.53939,-21.00401 14.43518,-42.61102 20.50347,-64.62002 -18.66459,5.72836 -35.39834,16.38113 -48.82213,30.45079 -20.77929,21.70752 -33.55946,51.75633 -33.55946,84.82006 0,9.14529 1.01138,17.98909 2.85025,26.5314 z"
     class="fil1" />
</svg>
